<svg width="84" height="25" viewBox="0 0 84 25" fill="none" xmlns="http://www.w3.org/2000/svg">
<path d="M71.7935 7.91211C69.4727 7.91211 67.5852 9.80248 67.5852 12.127C67.5852 14.4514 69.4727 16.342 71.7935 16.342C74.1143 16.342 76.0016 14.4514 76.0016 12.127C76.0016 9.80248 74.1143 7.91211 71.7935 7.91211ZM71.7935 13.3906C71.0979 13.3906 70.5332 12.8237 70.5332 12.128C70.5332 11.4322 71.0989 10.8653 71.7935 10.8653C72.4881 10.8653 73.0537 11.4322 73.0537 12.128C73.0537 12.8237 72.4892 13.3906 71.7935 13.3906Z" fill="#9E70FF"/>
<path d="M71.7936 0.03125C65.1345 0.03125 59.7174 5.45867 59.7174 12.128C59.7174 18.7973 65.1345 24.2248 71.7936 24.2248C78.4527 24.2248 83.8706 18.7983 83.8706 12.128C83.8706 5.45775 78.4527 0.03125 71.7936 0.03125ZM71.7936 21.2735C66.7597 21.2735 62.6644 17.1716 62.6644 12.1291C62.6644 7.08639 66.7607 2.98364 71.7936 2.98364C76.8284 2.98364 80.9227 7.08547 80.9227 12.128C80.9227 17.1706 76.8284 21.2735 71.7936 21.2735Z" fill="#9E70FF"/>
<path d="M50.0833 0.03125C46.2552 0.03125 43.1409 3.15082 43.1409 6.98602V17.2729C43.1409 21.1071 46.2552 24.2267 50.0833 24.2267C53.9103 24.2267 57.0256 21.1071 57.0256 17.2729V6.98602C57.0266 3.15082 53.9113 0.03125 50.0833 0.03125ZM54.0787 17.2729C54.0787 19.4794 52.2872 21.2743 50.0843 21.2743C47.8814 21.2743 46.0899 19.4794 46.0899 17.2729V6.98602C46.0899 4.77955 47.8814 2.98364 50.0843 2.98364C52.2872 2.98364 54.0787 4.77864 54.0787 6.98602V17.2729Z" fill="#9E70FF"/>
<path d="M40.4491 8.70288V6.98602C40.4501 3.15082 37.3358 0.03125 33.5067 0.03125C29.6797 0.03125 26.5654 3.15082 26.5654 6.98602V8.8719C27.0679 10.4917 28.1244 11.8666 29.5123 12.7787V12.6682C30.6435 13.4683 32.0207 13.9408 33.5067 13.9408C34.9938 13.9408 36.372 13.4683 37.5022 12.6682V12.7479C38.9143 11.8041 39.9743 10.3767 40.4491 8.70288ZM33.5067 10.9874C31.3049 10.9874 29.5123 9.19238 29.5123 6.98602C29.5123 4.77853 31.3049 2.98354 33.5067 2.98354C35.7096 2.98354 37.5022 4.77853 37.5022 6.98602C37.5022 9.19238 35.7096 10.9874 33.5067 10.9874Z" fill="#9E70FF"/>
<path d="M33.5068 0.03125C29.6798 0.03125 26.5654 3.15082 26.5654 6.98602V17.2729C26.5654 21.107 29.6798 24.2267 33.5068 24.2267C37.3349 24.2267 40.4492 21.107 40.4492 17.2729V6.98602C40.4502 3.15082 37.3359 0.03125 33.5068 0.03125ZM37.5023 12.6682V17.2739C37.5033 19.4803 35.7107 21.2753 33.5068 21.2753C31.305 21.2753 29.5123 19.4803 29.5123 17.2739V16.2095H29.5054V7.02947H29.5134C29.5132 7.01488 29.5123 7.00061 29.5123 6.98602C29.5123 4.77853 31.305 2.98364 33.5068 2.98364C35.7097 2.98364 37.5023 4.77853 37.5023 6.98602C37.5023 7.1788 37.4888 12.6777 37.5023 12.6682Z" fill="#9E70FF"/>
<path d="M14.3072 8.96359L11.374 11.8131V13.3276V15.1857V17.1275C11.374 17.1275 11.3499 18.4054 10.9628 19.0311C10.3123 20.3588 8.95061 21.2753 7.37757 21.2753C5.17467 21.2753 3.38212 19.4803 3.38212 17.2729V6.98602C3.38212 4.77853 5.17467 2.98364 7.37757 2.98364C8.98468 2.98364 10.3739 3.9402 11.007 5.31495L11.0056 5.31628C11.0198 5.34147 11.0323 5.3684 11.0432 5.39747C11.3492 6.21347 11.3492 7.23347 11.3492 7.23347L11.3568 9.08814L14.3072 6.22265V5.29547C14.3072 4.7005 13.1918 3.19325 13.1918 3.19325C11.9518 1.29187 9.80935 0.03125 7.37757 0.03125C3.54951 0.03125 0.435242 3.15082 0.435242 6.98602V17.2729C0.435242 21.108 3.54951 24.2277 7.37757 24.2277C9.81037 24.2277 11.9528 22.9671 13.1928 21.0657H13.1938C13.216 21.0303 13.2392 20.9948 13.2613 20.9594C13.2937 20.9073 13.3259 20.8541 13.3571 20.801C13.3874 20.7517 13.4157 20.7015 13.4438 20.6515C13.462 20.6189 13.4801 20.5874 13.4983 20.554C13.5386 20.4792 13.5769 20.4044 13.6143 20.3286C13.6283 20.298 13.6434 20.2686 13.6576 20.2381C13.6949 20.1583 13.7322 20.0777 13.7664 19.996C13.7765 19.9744 13.7836 19.9516 13.7937 19.9291C13.8229 19.8572 13.8522 19.7844 13.8794 19.7116C13.8884 19.6871 13.8975 19.6624 13.9066 19.6377C13.9369 19.5521 13.9671 19.4655 13.9943 19.3789C14.0034 19.3504 14.0114 19.3219 14.0205 19.2933C14.0478 19.2057 14.0729 19.1172 14.0962 19.0276C14.1022 19.004 14.1082 18.9804 14.1143 18.9567C14.1324 18.881 14.1506 18.8052 14.1667 18.7285C14.1728 18.6999 14.1798 18.6724 14.1848 18.6438C14.203 18.5553 14.2182 18.4667 14.2323 18.3771C14.2383 18.3436 14.2424 18.3092 14.2474 18.2758C14.2605 18.1871 14.2726 18.0986 14.2816 18.0091C14.2931 17.904 14.3008 17.7979 14.3072 17.6915V8.96359Z" fill="#9E70FF"/>
<path d="M22.2624 15.1403L20.3125 13.2469C19.9748 12.9192 19.7882 12.5226 19.7882 12.1299C19.7882 11.7372 19.9749 11.3407 20.3136 11.0119L22.2614 9.11855C23.8372 7.58824 24.304 5.37199 23.4802 3.33484C22.6556 1.2977 20.7803 0.0332031 18.5865 0.0332031C17.2073 0.0332031 15.9008 0.562583 14.9108 1.52506L13.4076 2.98457L11.007 5.31589L7.33016 8.88629C6.40961 9.77094 5.90369 10.9224 5.90369 12.1299C5.90369 13.3374 6.41063 14.4888 7.32506 15.3677L11.0055 18.9425C11.03 18.9568 11.0433 18.9644 11.0433 18.9644L13.1989 21.0586C13.2195 21.0258 13.2408 20.9931 13.2613 20.9603C13.2935 20.9082 13.3259 20.855 13.3571 20.8019C13.3874 20.7527 13.4155 20.7025 13.4437 20.6524C13.4619 20.6199 13.48 20.5883 13.4982 20.5549C13.5385 20.4801 13.5769 20.4054 13.6143 20.3296C13.6284 20.299 13.6433 20.2695 13.6575 20.239C13.6948 20.1592 13.7322 20.0787 13.7665 19.9969C13.7766 19.9752 13.7835 19.9526 13.7936 19.93C13.8229 19.8581 13.8521 19.7853 13.8794 19.7126C13.8885 19.688 13.8974 19.6633 13.9065 19.6386C13.9368 19.553 13.9671 19.4664 13.9943 19.3798C14.0034 19.3513 14.0114 19.3228 14.0204 19.2943C14.0477 19.2067 14.073 19.1181 14.0961 19.0286C14.1022 19.0049 14.1082 18.9813 14.1142 18.9577C14.1323 18.8819 14.1505 18.8061 14.1666 18.7294C14.1727 18.7008 14.1799 18.6733 14.1849 18.6447C14.203 18.5562 14.218 18.4677 14.2322 18.378C14.2382 18.3445 14.2423 18.3102 14.2473 18.2767C14.2603 18.1881 14.2725 18.0995 14.2816 18.01C14.2893 17.9387 14.2936 17.8665 14.299 17.7945L11.3739 15.1819V15.1866L11.3148 15.1291L9.37169 13.2419C9.03192 12.9153 8.85159 12.5304 8.85159 12.1289C8.85159 11.7274 9.03203 11.3426 9.37781 11.011L16.9633 3.6439C17.4009 3.21877 17.9776 2.98457 18.5876 2.98457C19.5716 2.98457 20.379 3.52976 20.7491 4.44399C21.1181 5.35719 20.9166 6.31273 20.2108 6.99868L18.2629 8.89017C17.3454 9.77879 16.8403 10.9293 16.8403 12.1299C16.8403 13.3295 17.3454 14.48 18.2619 15.3677L20.2108 17.2601C20.9166 17.946 21.1181 18.9016 20.7491 19.8149C20.379 20.7281 19.5706 21.2743 18.5876 21.2743C17.9787 21.2743 17.4009 21.0401 16.9633 20.615L15.9662 19.6466C15.685 20.6681 15.2262 21.6168 14.6253 22.4562L14.9118 22.7347C15.9018 23.6972 17.2084 24.2266 18.5876 24.2266C20.7814 24.2266 22.6566 22.9611 23.4812 20.924C24.3049 18.8869 23.8382 16.6706 22.2624 15.1403Z" fill="#9E70FF"/>
</svg>
