<svg width="24" height="25" viewBox="0 0 24 25" fill="none" xmlns="http://www.w3.org/2000/svg">
<g clip-path="url(#clip0_1_43367)">
<path d="M0 12.4844C0 5.85696 5.37258 0.484375 12 0.484375C18.6274 0.484375 24 5.85696 24 12.4844C24 18.8236 19.0845 24.0147 12.8571 24.4542V15.0558H16.2857C16.7591 15.0558 17.1429 14.6721 17.1429 14.1987C17.1429 13.7253 16.7591 13.3415 16.2857 13.3415H12.8571V10.7701C12.8571 9.82329 13.6246 9.0558 14.5714 9.0558H16.2857C16.7591 9.0558 17.1429 8.67205 17.1429 8.19866C17.1429 7.72527 16.7591 7.34152 16.2857 7.34152H14.5714C12.6779 7.34152 11.1429 8.87654 11.1429 10.7701V13.3415H9.42857C8.95517 13.3415 8.57143 13.7253 8.57143 14.1987C8.57143 14.6721 8.95517 15.0558 9.42857 15.0558H11.1429V24.4542C4.91547 24.0147 0 18.8236 0 12.4844Z" fill="#565C75"/>
</g>
<defs>
<clipPath id="clip0_1_43367">
<rect width="24" height="24" fill="white" transform="translate(0 0.484375)"/>
</clipPath>
</defs>
</svg>
