<svg width="33" height="33" viewBox="0 0 33 33" fill="none" xmlns="http://www.w3.org/2000/svg">
<g clip-path="url(#clip0_1_43297)">
<path fill-rule="evenodd" clip-rule="evenodd" d="M6.32812 3.48438C4.67128 3.48438 3.32812 4.82753 3.32812 6.48438V18.4844C3.32812 20.1413 4.67128 21.4844 6.32812 21.4844H11.3281V26.4844C11.3281 28.1413 12.6712 29.4844 14.3281 29.4844H26.3281C27.985 29.4844 29.3281 28.1413 29.3281 26.4844V14.4844C29.3281 12.8275 27.985 11.4844 26.3281 11.4844H21.3281V6.48438C21.3281 4.82753 19.985 3.48438 18.3281 3.48438H6.32812ZM6.32812 19.4844H11.3281V15.4844H10.3281V16.4844C10.3281 17.0367 9.8804 17.4844 9.32812 17.4844C8.77585 17.4844 8.32812 17.0367 8.32812 16.4844V11.4844C8.32812 9.27524 10.119 7.48438 12.3281 7.48438C14.5372 7.48438 16.3281 9.27524 16.3281 11.4844H19.3281V6.48438C19.3281 5.9321 18.8804 5.48438 18.3281 5.48438H6.32812C5.77585 5.48438 5.32812 5.9321 5.32812 6.48438V18.4844C5.32812 19.0367 5.77585 19.4844 6.32812 19.4844ZM12.3281 9.48438C13.4327 9.48438 14.3281 10.3798 14.3281 11.4844C13.0219 11.4844 11.9106 12.3192 11.4988 13.4844H10.3281V11.4844C10.3281 10.3798 11.2235 9.48438 12.3281 9.48438ZM21.3281 15.4844C21.3281 14.9321 20.8804 14.4844 20.3281 14.4844C19.7758 14.4844 19.3281 14.9321 19.3281 15.4844V16.4844H16.3281C15.7758 16.4844 15.3281 16.9321 15.3281 17.4844C15.3281 18.0367 15.7758 18.4844 16.3281 18.4844H21.0061C20.9878 18.5378 20.9688 18.5924 20.9489 18.6481C20.6554 19.4698 20.1963 20.4935 19.5281 21.3844C19.0572 22.0123 18.2289 22.5525 17.4229 22.9527C17.0348 23.1454 16.6804 23.2919 16.424 23.3897C16.2962 23.4384 16.194 23.4746 16.1255 23.4981C16.0913 23.5098 16.0656 23.5183 16.0495 23.5236L16.0326 23.529L16.0309 23.5296C15.5042 23.6941 15.2093 24.2545 15.3733 24.7816C15.5374 25.3089 16.0979 25.6033 16.6253 25.4392L16.3281 24.4844C16.6253 25.4392 16.6251 25.4393 16.6253 25.4392L16.6273 25.4386L16.6304 25.4376L16.6395 25.4347L16.6696 25.425C16.6946 25.4169 16.7297 25.4052 16.7737 25.3902C16.8616 25.36 16.9855 25.3161 17.1369 25.2583C17.4385 25.1432 17.854 24.9716 18.3124 24.744C18.9325 24.4361 19.6919 23.9965 20.3513 23.4148C21.1693 24.1136 22.1856 24.6497 23.9322 25.4027C24.4394 25.6213 25.0278 25.3874 25.2464 24.8803C25.465 24.3731 25.2311 23.7847 24.724 23.5661C23.0241 22.8333 22.2117 22.3826 21.6185 21.8674C22.1798 20.9689 22.5711 20.0522 22.8323 19.3207C22.9441 19.0077 23.0337 18.7241 23.1036 18.4844H24.3281C24.8804 18.4844 25.3281 18.0367 25.3281 17.4844C25.3281 16.9321 24.8804 16.4844 24.3281 16.4844H21.3281V15.4844Z" fill="#A6A9BB"/>
</g>
<defs>
<clipPath id="clip0_1_43297">
<rect width="32" height="32" fill="white" transform="translate(0.328125 0.484375)"/>
</clipPath>
</defs>
</svg>
