<svg width="24" height="25" viewBox="0 0 24 25" fill="none" xmlns="http://www.w3.org/2000/svg">
<g clip-path="url(#clip0_1_43379)">
<path fill-rule="evenodd" clip-rule="evenodd" d="M0 3.48438C0 1.82752 1.34315 0.484375 3 0.484375H21C22.6569 0.484375 24 1.82753 24 3.48438V21.4844C24 23.1413 22.6569 24.4844 21 24.4844H3C1.34314 24.4844 0 23.1413 0 21.4844V3.48438ZM6 4.98438C6.82843 4.98438 7.5 5.65594 7.5 6.48438V6.49438C7.5 7.32281 6.82843 7.99438 6 7.99438C5.17157 7.99438 4.5 7.32281 4.5 6.49438V6.48438C4.5 5.65594 5.17157 4.98438 6 4.98438ZM6 9.48438C6.55228 9.48438 7 9.93209 7 10.4844V19.4844C7 20.0367 6.55228 20.4844 6 20.4844C5.44772 20.4844 5 20.0367 5 19.4844V10.4844C5 9.93209 5.44772 9.48438 6 9.48438ZM11.9783 10.276C11.8824 9.82372 11.4808 9.48438 11 9.48438C10.4477 9.48438 10 9.93209 10 10.4844V19.4844C10 20.0367 10.4477 20.4844 11 20.4844C11.5523 20.4844 12 20.0367 12 19.4844V13.4844C12 13.0057 12.2724 12.5234 12.8197 12.1192C13.371 11.7121 14.0791 11.4844 14.6569 11.4844H15C16.1046 11.4844 17 12.3798 17 13.4844V19.4844C17 20.0367 17.4477 20.4844 18 20.4844C18.5523 20.4844 19 20.0367 19 19.4844V13.4844C19 11.2753 17.2091 9.48438 15 9.48438H14.6569C13.7587 9.48438 12.7916 9.77316 11.9783 10.276Z" fill="#565C75"/>
</g>
<defs>
<clipPath id="clip0_1_43379">
<rect width="24" height="24" fill="white" transform="translate(0 0.484375)"/>
</clipPath>
</defs>
</svg>
