<svg width="33" height="33" viewBox="0 0 33 33" fill="none" xmlns="http://www.w3.org/2000/svg">
<g clip-path="url(#clip0_1_43303)">
<path d="M16.6562 2.48438C14.4471 2.48438 12.6562 4.27523 12.6562 6.48438C12.6562 8.69351 14.4471 10.4844 16.6562 10.4844C18.8653 10.4844 20.6562 8.69351 20.6562 6.48438C20.6562 4.27523 18.8653 2.48438 16.6562 2.48438Z" fill="#A6A9BB"/>
<path d="M5.78841 10.4933C5.24097 10.4202 4.73801 10.8049 4.66502 11.3523C4.59202 11.8998 4.97664 12.4027 5.52408 12.4757L12.1064 13.3534L11.663 21.3342L9.6861 29.242C9.55215 29.7778 9.87791 30.3207 10.4137 30.4546C10.9495 30.5886 11.4924 30.2628 11.6263 29.727L13.437 22.4845H19.8754L21.6861 29.727C21.82 30.2628 22.3629 30.5886 22.8987 30.4546C23.4345 30.3207 23.7603 29.7778 23.6263 29.242L21.6494 21.3342L21.206 13.3534L27.7884 12.4757C28.3358 12.4027 28.7204 11.8998 28.6474 11.3523C28.5744 10.8049 28.0715 10.4202 27.524 10.4933L20.0898 11.4845H13.2226L5.78841 10.4933Z" fill="#A6A9BB"/>
</g>
<defs>
<clipPath id="clip0_1_43303">
<rect width="32" height="32" fill="white" transform="translate(0.65625 0.484375)"/>
</clipPath>
</defs>
</svg>
