<svg width="32" height="33" viewBox="0 0 32 33" fill="none" xmlns="http://www.w3.org/2000/svg">
<path fill-rule="evenodd" clip-rule="evenodd" d="M7 5.48438C7 3.82753 8.34315 2.48438 10 2.48438H22C23.6569 2.48438 25 3.82753 25 5.48438V27.4844C25 29.1413 23.6569 30.4844 22 30.4844H10C8.34315 30.4844 7 29.1413 7 27.4844V5.48438ZM17.5 25.4844C17.5 24.656 16.8284 23.9844 16 23.9844C15.1716 23.9844 14.5 24.656 14.5 25.4844V25.4944C14.5 26.3228 15.1716 26.9944 16 26.9944C16.8284 26.9944 17.5 26.3228 17.5 25.4944V25.4844Z" fill="#A6A9BB"/>
</svg>
