<svg width="24" height="25" viewBox="0 0 24 25" fill="none" xmlns="http://www.w3.org/2000/svg">
<g clip-path="url(#clip0_1_43375)">
<path d="M12.3 0.484375C11.8266 0.484375 11.4429 0.868131 11.4429 1.34152V16.3844C11.4429 17.7572 10.3299 18.8701 8.95715 18.8701C7.58432 18.8701 6.47143 17.7572 6.47143 16.3844C6.47143 15.0116 7.58432 13.8987 8.95715 13.8987C9.09926 13.8987 9.23796 13.9105 9.37247 13.933C9.62109 13.9748 9.87549 13.9049 10.068 13.7421C10.2604 13.5792 10.3714 13.3399 10.3714 13.0877V9.1626C10.3714 8.71446 10.0262 8.34195 9.57926 8.30796C9.37381 8.29232 9.16632 8.28438 8.95715 8.28438C4.48364 8.28438 0.857147 11.9109 0.857147 16.3844C0.857147 20.8579 4.48364 24.4844 8.95715 24.4844C13.4307 24.4844 17.0571 20.8579 17.0571 16.3844V10.1869C18.319 10.7809 19.7286 11.1129 21.2143 11.1129H22.2857C22.7591 11.1129 23.1429 10.7292 23.1429 10.2558V6.3558C23.1429 5.88242 22.7591 5.49866 22.2857 5.49866H21.2143C18.9183 5.49866 17.0571 3.63744 17.0571 1.34152C17.0571 0.868131 16.6734 0.484375 16.2 0.484375H12.3Z" fill="#565C75"/>
</g>
<defs>
<clipPath id="clip0_1_43375">
<rect width="24" height="24" fill="white" transform="translate(0 0.484375)"/>
</clipPath>
</defs>
</svg>
