<svg width="24" height="25" viewBox="0 0 24 25" fill="none" xmlns="http://www.w3.org/2000/svg">
<g clip-path="url(#clip0_1_43371)">
<path d="M17.077 1.40723C13.7633 1.40723 11.077 4.09352 11.077 7.40723C11.077 7.49005 11.0787 7.57252 11.082 7.65459C9.20569 7.37649 7.82298 6.94251 6.6384 6.29198C5.21466 5.51011 4.00425 4.37598 2.55108 2.65737C2.31318 2.37601 1.93073 2.26308 1.57815 2.37008C1.22556 2.47708 0.970385 2.78352 0.928975 3.14964C0.493637 6.99887 0.494819 9.93783 1.38338 12.4181C2.1515 14.562 3.54694 16.2708 5.6732 17.9186C5.19654 18.1483 4.73814 18.3229 4.25194 18.4605C3.35806 18.7134 2.33048 18.8531 0.863763 18.9476C0.478147 18.9725 0.148821 19.2349 0.0384842 19.6052C-0.0718533 19.9755 0.0601519 20.3753 0.369284 20.6072C1.64168 21.5615 4.76786 23.5611 8.30775 23.5611C13.8529 23.5611 17.6056 21.6181 19.9427 18.5861C22.2477 15.5958 23.077 11.6742 23.077 7.86876C23.077 7.82528 23.0739 7.78213 23.0679 7.73961C23.074 7.62949 23.077 7.51867 23.077 7.40723C23.077 7.28049 23.073 7.15457 23.0653 7.02958C23.7576 5.86895 24.0001 4.643 24.0001 3.25338C24.0001 2.91295 23.8127 2.60016 23.5125 2.43953C23.2124 2.27889 22.8482 2.2965 22.565 2.48533C22.0607 2.8215 21.6498 3.00389 21.2611 3.10693C20.1811 2.05609 18.7044 1.40723 17.077 1.40723Z" fill="#565C75"/>
</g>
<defs>
<clipPath id="clip0_1_43371">
<rect width="24" height="24" fill="white" transform="translate(0 0.484375)"/>
</clipPath>
</defs>
</svg>
